<svg width="107" height="31" viewBox="0 0 107 31" fill="none" xmlns="http://www.w3.org/2000/svg">
<path fill-rule="evenodd" clip-rule="evenodd" d="M16.4118 23.0072H11.7548C4.48979 23.0072 9.76778 7.34339 15.884 7.34339H23.2422C24.4219 7.34339 26.502 7.56404 27.5266 4.60144L29.11 0H19.0197C13.5555 0 9.30204 1.95404 6.22842 5.23177C0.919394 10.8417 -0.881323 19.6034 0.391602 23.7951C1.60243 27.6716 4.89341 30.2245 10.0472 30.2876L14.0523 30.319H18.9887L20.1995 26.6316C21.0999 24.0157 19.0819 23.0072 16.4118 23.0072ZM73.1035 16.5147L74.6246 11.5036H58.3872C55.6862 11.5036 54.4753 12.26 54.0096 13.8358L52.4883 18.847H68.7259C71.4269 18.847 72.6378 18.0906 73.1035 16.5147ZM50.0667 25.3394L48.5454 30.3506H64.7829C67.453 30.3506 68.6948 29.5942 69.1606 28.0184L70.6819 23.0072H54.4443C51.7743 23.0072 50.5634 23.7636 50.0667 25.3394ZM76.8911 5.04267L78.4128 0.0315163H62.175C59.4739 0.0315163 58.2631 0.787916 57.7974 2.36375L56.2761 7.37491H72.5136C75.184 7.37491 76.3943 6.61851 76.8911 5.04267ZM52.3642 6.05121C51.6811 1.38674 49.2284 0.0315163 43.2674 0.0315163H32.401L26.0674 18.847H30.0725C32.4631 18.847 33.6739 18.8785 34.9468 15.4117L37.5858 7.34339H41.6219C45.0681 7.34339 44.292 11.7242 42.5533 15.979C41.001 19.7294 38.2999 23.0387 35.0399 23.0387H28.3028C25.6017 23.0387 24.3598 23.7951 23.863 25.371L22.1865 30.3821H27.123L31.9663 30.3506C36.2508 30.319 39.7591 30.0039 43.8573 26.2534C48.2039 22.2508 53.2335 11.9763 52.3642 6.05121ZM106.945 0H97.5378L88.6892 9.54955C87.6643 10.6526 86.6089 11.7557 85.584 13.0479H85.4909L89.8995 0H82.2315L71.8927 30.3506H79.5613L82.852 20.801L86.267 17.87L88.9685 26.5056C89.8064 29.1844 90.6764 30.3506 92.5392 30.3506H98.407L92.3835 13.3946L106.945 0Z" fill="white"/>
</svg>
