<svg width="116" height="78" viewBox="0 0 116 78" fill="none" xmlns="http://www.w3.org/2000/svg">
<path opacity="0.25" d="M36.1175 38.3579C26.8513 43.4989 17.2586 48.8161 9.78194 42.626C-5.30616 30.1394 1.47909 1.227 1.77389 -1.51416e-05L4.87182 0.767408C4.80391 1.05239 -1.73904 28.9647 11.8016 40.1696C17.6119 44.9992 25.8582 40.4226 34.5671 35.5665C45.1339 29.7115 57.1061 23.0697 64.7449 35.7283C66.2925 38.2848 67.1986 41.1776 67.385 44.1577C76.1597 44.9041 86.8274 47.6789 99.535 53.8596L101.485 42.1286C104.085 49.4505 109.949 58.2924 115.184 64.4988C107.192 63.2019 96.6246 62.7409 89.042 64.2924L97.9474 56.6194C85.7812 50.7406 75.6538 48.0963 67.3409 47.3659C66.8732 51.3803 65.5174 55.2361 63.3723 58.6524C56.9889 69.2317 43.9979 78.0715 35.5876 77.5326C34.1228 77.5262 32.6896 77.095 31.4611 76.2908C30.2327 75.4867 29.2615 74.3441 28.6648 73.0012C26.1214 67.3668 28.5373 59.5574 34.7453 53.6752C38.067 50.5286 47.3619 43.4664 64.2266 44.0273C64.0153 41.6849 63.2689 39.4205 62.0453 37.4097C56.4009 28.0359 48.4819 31.5266 36.1175 38.3579ZM36.9346 55.9627C31.8072 60.8768 29.5932 67.3408 31.5429 71.6713C31.9079 72.4809 32.5037 73.1647 33.2552 73.6364C34.0066 74.1081 34.8798 74.3465 35.7645 74.3214C42.3137 74.7306 54.3381 67.3951 60.6264 56.969C62.4981 53.9903 63.7058 50.6399 64.1675 47.1459C48.5135 46.6478 39.9816 53.0606 36.9452 55.9811L36.9346 55.9627Z" fill="white"/>
</svg>
