<svg width="52" height="52" viewBox="0 0 52 52" fill="none" xmlns="http://www.w3.org/2000/svg">
<g clip-path="url(#clip0_2030_81)">
<g clip-path="url(#clip1_2030_81)">
<path d="M52 0H0V52H52V0Z" fill="#FF5226"/>
<path d="M21.8665 4.46875L-8.53125 51.8966H5.40543L22.9653 24.5595L22.5336 24.3633L17.6679 43.9244L27.9749 45.7425L38.5696 32.4271L37.9941 32.1394L34.4167 47.2598L56.875 42.9826L52.2905 35.4421L44.194 37.2929L45.1488 38.3916L48.9159 22.5976L40.1327 16.7247L28.6419 31.1845L29.2109 31.4723L33.9328 12.526L21.8665 4.46875Z" fill="#FFDD00"/>
<path d="M21.8665 4.46875L-8.53125 51.8966H5.40543L22.9653 24.5595L22.5336 24.3633L17.6679 43.9244L27.9749 45.7425L38.5696 32.4271L37.9941 32.1394L34.4167 47.2598L43.4419 45.5398L48.9224 22.591L40.1392 16.7181L28.6419 31.1845L29.2109 31.4723L33.9328 12.526L21.8665 4.46875Z" fill="#FFDD00"/>
</g>
</g>
<defs>
<clipPath id="clip0_2030_81">
<rect width="52" height="52" rx="16" fill="white"/>
</clipPath>
<clipPath id="clip1_2030_81">
<rect width="52" height="52" fill="white"/>
</clipPath>
</defs>
</svg>
