<svg width="52" height="52" viewBox="0 0 52 52" fill="none" xmlns="http://www.w3.org/2000/svg">
<g clip-path="url(#clip0_2030_68)">
<path d="M52 0H0V52H52V0Z" fill="#005BFF"/>
<path d="M26 11.7812C15.0047 11.7812 6.09375 18.2341 6.09375 26.2031C6.09375 34.1722 15.0047 40.625 26 40.625C36.9953 40.625 45.9062 34.1722 45.9062 26.2031C45.9062 18.2341 36.9953 11.7812 26 11.7812ZM26 33.9077C18.4092 33.9077 12.7292 29.8527 12.7292 26.2208C12.7292 22.5888 18.4092 18.5338 26 18.5338C33.5908 18.5338 39.2708 22.5888 39.2708 26.2208C39.2708 29.8527 33.6082 33.9077 26 33.9077Z" fill="white"/>
</g>
<defs>
<clipPath id="clip0_2030_68">
<rect width="52" height="52" rx="16" fill="white"/>
</clipPath>
</defs>
</svg>
