<svg width="52" height="52" viewBox="0 0 52 52" fill="none" xmlns="http://www.w3.org/2000/svg">
<g clip-path="url(#clip0_2030_55)">
<g clip-path="url(#clip1_2030_55)">
<path d="M52 0H0V52H52V0Z" fill="url(#paint0_linear_2030_55)"/>
<path d="M38.7286 19.8179C36.982 19.8179 35.4028 20.3441 34.0561 21.2477V13H30.3303V28.2107C30.3303 32.8384 34.097 36.5625 38.7062 36.5625C43.3156 36.5625 47.125 32.8607 47.125 28.1679C47.125 23.4751 43.3993 19.8161 38.7267 19.8161L38.7286 19.8179ZM21.8186 29.2853L18.409 20.4073H15.7993L12.3693 29.2853L8.9393 20.4073H4.875L10.8738 36.0178H13.4835L17.0827 26.7195L20.7025 36.0178H23.3122L29.2905 20.4073H25.2485L21.8186 29.2853ZM38.7081 32.8403C36.1821 32.8403 34.0561 30.8211 34.0561 28.1902C34.0561 25.5593 36.0557 23.5625 38.7286 23.5625C41.4015 23.5625 43.4011 25.6449 43.4011 28.1902C43.4011 30.7355 41.275 32.8403 38.7081 32.8403Z" fill="white"/>
</g>
</g>
<defs>
<linearGradient id="paint0_linear_2030_55" x1="17.4909" y1="56.4909" x2="49.4" y2="3.30909" gradientUnits="userSpaceOnUse">
<stop stop-color="#6F01FB"/>
<stop offset="1" stop-color="#FF49D7"/>
</linearGradient>
<clipPath id="clip0_2030_55">
<rect width="52" height="52" rx="16" fill="white"/>
</clipPath>
<clipPath id="clip1_2030_55">
<rect width="52" height="52" fill="white"/>
</clipPath>
</defs>
</svg>
