<svg width="52" height="52" viewBox="0 0 52 52" fill="none" xmlns="http://www.w3.org/2000/svg">
<g clip-path="url(#clip0_2030_98)">
<g clip-path="url(#clip1_2030_98)">
<path d="M52 0H0V52H52V0Z" fill="#ECF7E1"/>
<path d="M18.4257 43.7349C24.7877 43.7349 29.9452 38.5774 29.9452 32.2154C29.9452 25.8533 24.7877 20.6959 18.4257 20.6959C12.0637 20.6959 6.90625 25.8533 6.90625 32.2154C6.90625 38.5774 12.0637 43.7349 18.4257 43.7349Z" fill="#04E061"/>
<path d="M38.409 42.2811C42.2534 42.2811 45.3698 39.1647 45.3698 35.3203C45.3698 31.476 42.2534 28.3596 38.409 28.3596C34.5647 28.3596 31.4482 31.476 31.4482 35.3203C31.4482 39.1647 34.5647 42.2811 38.409 42.2811Z" fill="#FF4053"/>
<path d="M20.6287 19.1943C23.0077 19.1943 24.9362 17.2658 24.9362 14.8868C24.9362 12.5079 23.0077 10.5793 20.6287 10.5793C18.2498 10.5793 16.3213 12.5079 16.3213 14.8868C16.3213 17.2658 18.2498 19.1943 20.6287 19.1943Z" fill="#965EEB"/>
<path d="M35.7049 26.8565C40.8774 26.8565 45.0706 22.6633 45.0706 17.4908C45.0706 12.3182 40.8774 8.125 35.7049 8.125C30.5322 8.125 26.3391 12.3182 26.3391 17.4908C26.3391 22.6633 30.5322 26.8565 35.7049 26.8565Z" fill="#00AAFF"/>
</g>
</g>
<defs>
<clipPath id="clip0_2030_98">
<rect width="52" height="52" rx="16" fill="white"/>
</clipPath>
<clipPath id="clip1_2030_98">
<rect width="52" height="52" fill="white"/>
</clipPath>
</defs>
</svg>
